G04 #@! TF.FileFunction,Copper,L1,Top,Signal*
%FSLAX46Y46*%
G04 Gerber Fmt 4.6, Leading zero omitted, Abs format (unit mm)*
G04 Created by KiCad (PCBNEW (2015-08-16 BZR 6097, Git b384c94)-product) date 18/01/2016 23:47:45*
%MOMM*%
G01*
G04 APERTURE LIST*
%ADD10C,0.100000*%
%ADD11R,1.016000X0.889000*%
%ADD12R,1.600000X1.600000*%
%ADD13C,1.600000*%
%ADD14R,1.800860X0.800100*%
%ADD15R,1.000000X0.900000*%
%ADD16R,0.900000X1.000000*%
%ADD17R,1.500000X1.500000*%
%ADD18C,1.500000*%
%ADD19C,0.250000*%
G04 APERTURE END LIST*
D10*
D11*
X169000000Y-122262000D03*
X169000000Y-120738000D03*
D12*
X177000000Y-119770000D03*
D13*
X177000000Y-117230000D03*
D14*
X165000000Y-119135000D03*
X165000000Y-120405000D03*
X165000000Y-117865000D03*
X165000000Y-116595000D03*
D15*
X171500000Y-122250000D03*
X171500000Y-120750000D03*
D16*
X174750000Y-123500000D03*
X176250000Y-123500000D03*
D17*
X171500000Y-124500000D03*
D18*
X168960000Y-124500000D03*
D19*
X164224600Y-120129900D02*
X165000000Y-120405000D01*
X164099600Y-120129900D02*
X164224600Y-120129900D01*
X164047800Y-120129900D02*
X164099600Y-120129900D01*
X163974600Y-120056700D02*
X164047800Y-120129900D01*
X163674500Y-119711200D02*
X163974600Y-120056700D01*
X163674500Y-119359000D02*
X163674500Y-119711200D01*
X163674500Y-117413800D02*
X163674500Y-119359000D01*
X163677200Y-117226800D02*
X163674500Y-117413800D01*
X163745700Y-117055400D02*
X163677200Y-117226800D01*
X163891300Y-116849900D02*
X163745700Y-117055400D01*
X164224600Y-116870100D02*
X163891300Y-116849900D01*
X165000000Y-116595000D02*
X164224600Y-116870100D01*
X168960000Y-122581500D02*
X169000000Y-122262000D01*
X168960000Y-122706500D02*
X168960000Y-122581500D01*
X168960000Y-124500000D02*
X168960000Y-122706500D01*
X165775400Y-120680100D02*
X165000000Y-120405000D01*
X165775400Y-120805100D02*
X165775400Y-120680100D01*
X165775400Y-120856900D02*
X165775400Y-120805100D01*
X165848600Y-120930100D02*
X165775400Y-120856900D01*
X168440200Y-121942500D02*
X165848600Y-120930100D01*
X168492000Y-121942500D02*
X168440200Y-121942500D01*
X168617000Y-121942500D02*
X168492000Y-121942500D01*
X169000000Y-122262000D02*
X168617000Y-121942500D01*
X165775400Y-119410100D02*
X165000000Y-119135000D01*
X165900400Y-119410100D02*
X165775400Y-119410100D01*
X165952200Y-119410100D02*
X165900400Y-119410100D01*
X168440200Y-120418500D02*
X165952200Y-119410100D01*
X168492000Y-120418500D02*
X168440200Y-120418500D01*
X168617000Y-120418500D02*
X168492000Y-120418500D01*
X169000000Y-120738000D02*
X168617000Y-120418500D01*
X171125000Y-120744000D02*
X171500000Y-120750000D01*
X171000000Y-120744000D02*
X171125000Y-120744000D01*
X169508000Y-120744000D02*
X171000000Y-120744000D01*
X169383000Y-120744000D02*
X169508000Y-120744000D01*
X169000000Y-120738000D02*
X169383000Y-120744000D01*
X176575000Y-120445000D02*
X177000000Y-119770000D01*
X176575000Y-120570000D02*
X176575000Y-120445000D01*
X176575000Y-123000000D02*
X176575000Y-120570000D01*
X176575000Y-123125000D02*
X176575000Y-123000000D01*
X176250000Y-123500000D02*
X176575000Y-123125000D01*
X165952200Y-117589900D02*
X177000000Y-117230000D01*
X165900400Y-117589900D02*
X165952200Y-117589900D01*
X165775400Y-117589900D02*
X165900400Y-117589900D01*
X165000000Y-117865000D02*
X165775400Y-117589900D01*
X171500000Y-123875000D02*
X171500000Y-124500000D01*
X171500000Y-123750000D02*
X171500000Y-123875000D01*
X171500000Y-122700000D02*
X171500000Y-123750000D01*
X171500000Y-122575000D02*
X171500000Y-122700000D01*
X171500000Y-122250000D02*
X171500000Y-122575000D01*
X172125000Y-123875000D02*
X171500000Y-124500000D01*
X172250000Y-123875000D02*
X172125000Y-123875000D01*
X174300000Y-123875000D02*
X172250000Y-123875000D01*
X174425000Y-123875000D02*
X174300000Y-123875000D01*
X174750000Y-123500000D02*
X174425000Y-123875000D01*
M02*
