G04 #@! TF.FileFunction,Legend,Top*
%FSLAX46Y46*%
G04 Gerber Fmt 4.6, Leading zero omitted, Abs format (unit mm)*
G04 Created by KiCad (PCBNEW (2015-08-16 BZR 6097, Git b384c94)-product) date 18/01/2016 23:47:46*
%MOMM*%
G01*
G04 APERTURE LIST*
%ADD10C,0.100000*%
%ADD11C,0.150000*%
%ADD12C,0.203200*%
%ADD13C,0.254000*%
%ADD14C,0.152400*%
%ADD15C,0.149860*%
G04 APERTURE END LIST*
D10*
D11*
X169000000Y-123000000D02*
X168200000Y-123000000D01*
X168200000Y-123000000D02*
X168200000Y-120000000D01*
X168200000Y-120000000D02*
X169800000Y-120000000D01*
X169800000Y-120000000D02*
X169800000Y-123000000D01*
X169800000Y-123000000D02*
X169000000Y-123000000D01*
D12*
X178905000Y-115655200D02*
X175095000Y-115655200D01*
D13*
X175092332Y-115708003D02*
G75*
G03X178905000Y-115706000I1907668J-2537997D01*
G01*
D14*
X175857000Y-118246000D02*
G75*
G03X177000000Y-119389000I1143000J0D01*
G01*
X178143000Y-118246000D02*
G75*
G03X177000000Y-117103000I-1143000J0D01*
G01*
X175349000Y-118246000D02*
G75*
G03X177000000Y-119897000I1651000J0D01*
G01*
X178651000Y-118246000D02*
G75*
G03X177000000Y-116595000I-1651000J0D01*
G01*
X174841000Y-118246000D02*
G75*
G03X177000000Y-120405000I2159000J0D01*
G01*
X179159000Y-118246000D02*
G75*
G03X177000000Y-116087000I-2159000J0D01*
G01*
D15*
X162299980Y-121901060D02*
X165299720Y-121901060D01*
X162299980Y-121901060D02*
X162299980Y-115098940D01*
X162299980Y-115098940D02*
X163001020Y-115098940D01*
X162950220Y-121901060D02*
X162950220Y-115098940D01*
X163001020Y-115098940D02*
X165050800Y-115098940D01*
X165050800Y-115098940D02*
X165299720Y-115098940D01*
X165299720Y-115098940D02*
X165299720Y-121901060D01*
D11*
X171500000Y-123000000D02*
X170700000Y-123000000D01*
X170700000Y-123000000D02*
X170700000Y-120000000D01*
X170700000Y-120000000D02*
X172300000Y-120000000D01*
X172300000Y-120000000D02*
X172300000Y-123000000D01*
X172300000Y-123000000D02*
X171500000Y-123000000D01*
X174000000Y-123500000D02*
X174000000Y-122700000D01*
X174000000Y-122700000D02*
X177000000Y-122700000D01*
X177000000Y-122700000D02*
X177000000Y-124300000D01*
X177000000Y-124300000D02*
X174000000Y-124300000D01*
X174000000Y-124300000D02*
X174000000Y-123500000D01*
X167690000Y-123230000D02*
X172770000Y-123230000D01*
X167690000Y-125770000D02*
X172770000Y-125770000D01*
X172897000Y-123230000D02*
X172770000Y-123230000D01*
X172770000Y-125770000D02*
X173024000Y-125770000D01*
X173024000Y-125770000D02*
X173024000Y-123230000D01*
X173024000Y-123230000D02*
X172897000Y-123230000D01*
X172897000Y-123230000D02*
X172897000Y-125643000D01*
X167690000Y-125770000D02*
X167690000Y-123230000D01*
X172770000Y-123230000D02*
X172770000Y-125770000D01*
X167714286Y-121100000D02*
X167742857Y-121128571D01*
X167771429Y-121214285D01*
X167771429Y-121271428D01*
X167742857Y-121357143D01*
X167685714Y-121414285D01*
X167628571Y-121442857D01*
X167514286Y-121471428D01*
X167428571Y-121471428D01*
X167314286Y-121442857D01*
X167257143Y-121414285D01*
X167200000Y-121357143D01*
X167171429Y-121271428D01*
X167171429Y-121214285D01*
X167200000Y-121128571D01*
X167228571Y-121100000D01*
X167771429Y-120528571D02*
X167771429Y-120871428D01*
X167771429Y-120700000D02*
X167171429Y-120700000D01*
X167257143Y-120757143D01*
X167314286Y-120814285D01*
X167342857Y-120871428D01*
X168271429Y-119171429D02*
X168328572Y-119171429D01*
X168385715Y-119200000D01*
X168414286Y-119228571D01*
X168442857Y-119285714D01*
X168471429Y-119400000D01*
X168471429Y-119542857D01*
X168442857Y-119657143D01*
X168414286Y-119714286D01*
X168385715Y-119742857D01*
X168328572Y-119771429D01*
X168271429Y-119771429D01*
X168214286Y-119742857D01*
X168185715Y-119714286D01*
X168157143Y-119657143D01*
X168128572Y-119542857D01*
X168128572Y-119400000D01*
X168157143Y-119285714D01*
X168185715Y-119228571D01*
X168214286Y-119200000D01*
X168271429Y-119171429D01*
X168728572Y-119714286D02*
X168757144Y-119742857D01*
X168728572Y-119771429D01*
X168700001Y-119742857D01*
X168728572Y-119714286D01*
X168728572Y-119771429D01*
X169328572Y-119771429D02*
X168985715Y-119771429D01*
X169157143Y-119771429D02*
X169157143Y-119171429D01*
X169100000Y-119257143D01*
X169042858Y-119314286D01*
X168985715Y-119342857D01*
X169842858Y-119371429D02*
X169842858Y-119771429D01*
X169585715Y-119371429D02*
X169585715Y-119685714D01*
X169614287Y-119742857D01*
X169671429Y-119771429D01*
X169757144Y-119771429D01*
X169814287Y-119742857D01*
X169842858Y-119714286D01*
X173461429Y-118942857D02*
X172861429Y-118942857D01*
X172861429Y-118800000D01*
X172890000Y-118714285D01*
X172947143Y-118657143D01*
X173004286Y-118628571D01*
X173118571Y-118600000D01*
X173204286Y-118600000D01*
X173318571Y-118628571D01*
X173375714Y-118657143D01*
X173432857Y-118714285D01*
X173461429Y-118800000D01*
X173461429Y-118942857D01*
X173461429Y-118028571D02*
X173461429Y-118371428D01*
X173461429Y-118200000D02*
X172861429Y-118200000D01*
X172947143Y-118257143D01*
X173004286Y-118314285D01*
X173032857Y-118371428D01*
D15*
X181081175Y-118885354D02*
X181081175Y-119170801D01*
X180481735Y-119170801D01*
X180767183Y-118685540D02*
X180767183Y-118485727D01*
X181081175Y-118400093D02*
X181081175Y-118685540D01*
X180481735Y-118685540D01*
X180481735Y-118400093D01*
X181081175Y-118143190D02*
X180481735Y-118143190D01*
X180481735Y-118000466D01*
X180510280Y-117914832D01*
X180567370Y-117857743D01*
X180624459Y-117829198D01*
X180738638Y-117800653D01*
X180824272Y-117800653D01*
X180938451Y-117829198D01*
X180995541Y-117857743D01*
X181052630Y-117914832D01*
X181081175Y-118000466D01*
X181081175Y-118143190D01*
X161847738Y-115560476D02*
X161817500Y-115620952D01*
X161757024Y-115681429D01*
X161666310Y-115772143D01*
X161636071Y-115832619D01*
X161636071Y-115893095D01*
X161787262Y-115862857D02*
X161757024Y-115923333D01*
X161696548Y-115983810D01*
X161575595Y-116014048D01*
X161363929Y-116014048D01*
X161242976Y-115983810D01*
X161182500Y-115923333D01*
X161152262Y-115862857D01*
X161152262Y-115741905D01*
X161182500Y-115681429D01*
X161242976Y-115620952D01*
X161363929Y-115590714D01*
X161575595Y-115590714D01*
X161696548Y-115620952D01*
X161757024Y-115681429D01*
X161787262Y-115741905D01*
X161787262Y-115862857D01*
X161787262Y-114985952D02*
X161787262Y-115348810D01*
X161787262Y-115167381D02*
X161152262Y-115167381D01*
X161242976Y-115227857D01*
X161303452Y-115288333D01*
X161333690Y-115348810D01*
X161152262Y-121645834D02*
X161152262Y-121282977D01*
X161787262Y-121464405D02*
X161152262Y-121464405D01*
X161757024Y-121101548D02*
X161787262Y-121010833D01*
X161787262Y-120859643D01*
X161757024Y-120799167D01*
X161726786Y-120768929D01*
X161666310Y-120738690D01*
X161605833Y-120738690D01*
X161545357Y-120768929D01*
X161515119Y-120799167D01*
X161484881Y-120859643D01*
X161454643Y-120980595D01*
X161424405Y-121041071D01*
X161394167Y-121071310D01*
X161333690Y-121101548D01*
X161273214Y-121101548D01*
X161212738Y-121071310D01*
X161182500Y-121041071D01*
X161152262Y-120980595D01*
X161152262Y-120829405D01*
X161182500Y-120738690D01*
X161152262Y-120345595D02*
X161152262Y-120224643D01*
X161182500Y-120164167D01*
X161242976Y-120103690D01*
X161363929Y-120073452D01*
X161575595Y-120073452D01*
X161696548Y-120103690D01*
X161757024Y-120164167D01*
X161787262Y-120224643D01*
X161787262Y-120345595D01*
X161757024Y-120406071D01*
X161696548Y-120466548D01*
X161575595Y-120496786D01*
X161363929Y-120496786D01*
X161242976Y-120466548D01*
X161182500Y-120406071D01*
X161152262Y-120345595D01*
X161787262Y-119801310D02*
X161152262Y-119801310D01*
X161152262Y-119559405D01*
X161182500Y-119498929D01*
X161212738Y-119468690D01*
X161273214Y-119438452D01*
X161363929Y-119438452D01*
X161424405Y-119468690D01*
X161454643Y-119498929D01*
X161484881Y-119559405D01*
X161484881Y-119801310D01*
X161152262Y-119226786D02*
X161152262Y-118803452D01*
X161787262Y-119075595D01*
X161152262Y-118259167D02*
X161152262Y-118561548D01*
X161454643Y-118591786D01*
X161424405Y-118561548D01*
X161394167Y-118501071D01*
X161394167Y-118349881D01*
X161424405Y-118289405D01*
X161454643Y-118259167D01*
X161515119Y-118228928D01*
X161666310Y-118228928D01*
X161726786Y-118259167D01*
X161757024Y-118289405D01*
X161787262Y-118349881D01*
X161787262Y-118501071D01*
X161757024Y-118561548D01*
X161726786Y-118591786D01*
X161212738Y-117987024D02*
X161182500Y-117956786D01*
X161152262Y-117896309D01*
X161152262Y-117745119D01*
X161182500Y-117684643D01*
X161212738Y-117654405D01*
X161273214Y-117624166D01*
X161333690Y-117624166D01*
X161424405Y-117654405D01*
X161787262Y-118017262D01*
X161787262Y-117624166D01*
X161152262Y-117412500D02*
X161787262Y-116989166D01*
X161152262Y-116989166D02*
X161787262Y-117412500D01*
X161152262Y-116807738D02*
X161787262Y-116384404D01*
X161152262Y-116384404D02*
X161787262Y-116807738D01*
D11*
X173271429Y-121600000D02*
X172985714Y-121800000D01*
X173271429Y-121942857D02*
X172671429Y-121942857D01*
X172671429Y-121714285D01*
X172700000Y-121657143D01*
X172728571Y-121628571D01*
X172785714Y-121600000D01*
X172871429Y-121600000D01*
X172928571Y-121628571D01*
X172957143Y-121657143D01*
X172985714Y-121714285D01*
X172985714Y-121942857D01*
X173271429Y-121028571D02*
X173271429Y-121371428D01*
X173271429Y-121200000D02*
X172671429Y-121200000D01*
X172757143Y-121257143D01*
X172814286Y-121314285D01*
X172842857Y-121371428D01*
X170800000Y-119771429D02*
X170457143Y-119771429D01*
X170628571Y-119771429D02*
X170628571Y-119171429D01*
X170571428Y-119257143D01*
X170514286Y-119314286D01*
X170457143Y-119342857D01*
X171171429Y-119171429D02*
X171228572Y-119171429D01*
X171285715Y-119200000D01*
X171314286Y-119228571D01*
X171342857Y-119285714D01*
X171371429Y-119400000D01*
X171371429Y-119542857D01*
X171342857Y-119657143D01*
X171314286Y-119714286D01*
X171285715Y-119742857D01*
X171228572Y-119771429D01*
X171171429Y-119771429D01*
X171114286Y-119742857D01*
X171085715Y-119714286D01*
X171057143Y-119657143D01*
X171028572Y-119542857D01*
X171028572Y-119400000D01*
X171057143Y-119285714D01*
X171085715Y-119228571D01*
X171114286Y-119200000D01*
X171171429Y-119171429D01*
X171742858Y-119171429D02*
X171800001Y-119171429D01*
X171857144Y-119200000D01*
X171885715Y-119228571D01*
X171914286Y-119285714D01*
X171942858Y-119400000D01*
X171942858Y-119542857D01*
X171914286Y-119657143D01*
X171885715Y-119714286D01*
X171857144Y-119742857D01*
X171800001Y-119771429D01*
X171742858Y-119771429D01*
X171685715Y-119742857D01*
X171657144Y-119714286D01*
X171628572Y-119657143D01*
X171600001Y-119542857D01*
X171600001Y-119400000D01*
X171628572Y-119285714D01*
X171657144Y-119228571D01*
X171685715Y-119200000D01*
X171742858Y-119171429D01*
X172542858Y-119771429D02*
X172342858Y-119485714D01*
X172200001Y-119771429D02*
X172200001Y-119171429D01*
X172428573Y-119171429D01*
X172485715Y-119200000D01*
X172514287Y-119228571D01*
X172542858Y-119285714D01*
X172542858Y-119371429D01*
X172514287Y-119428571D01*
X172485715Y-119457143D01*
X172428573Y-119485714D01*
X172200001Y-119485714D01*
X175336500Y-122501429D02*
X175136500Y-122215714D01*
X174993643Y-122501429D02*
X174993643Y-121901429D01*
X175222215Y-121901429D01*
X175279357Y-121930000D01*
X175307929Y-121958571D01*
X175336500Y-122015714D01*
X175336500Y-122101429D01*
X175307929Y-122158571D01*
X175279357Y-122187143D01*
X175222215Y-122215714D01*
X174993643Y-122215714D01*
X175565072Y-121958571D02*
X175593643Y-121930000D01*
X175650786Y-121901429D01*
X175793643Y-121901429D01*
X175850786Y-121930000D01*
X175879357Y-121958571D01*
X175907929Y-122015714D01*
X175907929Y-122072857D01*
X175879357Y-122158571D01*
X175536500Y-122501429D01*
X175907929Y-122501429D01*
X174899060Y-125170969D02*
X174556203Y-125170969D01*
X174727631Y-125170969D02*
X174727631Y-124570969D01*
X174670488Y-124656683D01*
X174613346Y-124713826D01*
X174556203Y-124742397D01*
X175270489Y-124570969D02*
X175327632Y-124570969D01*
X175384775Y-124599540D01*
X175413346Y-124628111D01*
X175441917Y-124685254D01*
X175470489Y-124799540D01*
X175470489Y-124942397D01*
X175441917Y-125056683D01*
X175413346Y-125113826D01*
X175384775Y-125142397D01*
X175327632Y-125170969D01*
X175270489Y-125170969D01*
X175213346Y-125142397D01*
X175184775Y-125113826D01*
X175156203Y-125056683D01*
X175127632Y-124942397D01*
X175127632Y-124799540D01*
X175156203Y-124685254D01*
X175184775Y-124628111D01*
X175213346Y-124599540D01*
X175270489Y-124570969D01*
X175841918Y-124570969D02*
X175899061Y-124570969D01*
X175956204Y-124599540D01*
X175984775Y-124628111D01*
X176013346Y-124685254D01*
X176041918Y-124799540D01*
X176041918Y-124942397D01*
X176013346Y-125056683D01*
X175984775Y-125113826D01*
X175956204Y-125142397D01*
X175899061Y-125170969D01*
X175841918Y-125170969D01*
X175784775Y-125142397D01*
X175756204Y-125113826D01*
X175727632Y-125056683D01*
X175699061Y-124942397D01*
X175699061Y-124799540D01*
X175727632Y-124685254D01*
X175756204Y-124628111D01*
X175784775Y-124599540D01*
X175841918Y-124570969D01*
X176641918Y-125170969D02*
X176441918Y-124885254D01*
X176299061Y-125170969D02*
X176299061Y-124570969D01*
X176527633Y-124570969D01*
X176584775Y-124599540D01*
X176613347Y-124628111D01*
X176641918Y-124685254D01*
X176641918Y-124770969D01*
X176613347Y-124828111D01*
X176584775Y-124856683D01*
X176527633Y-124885254D01*
X176299061Y-124885254D01*
X166671429Y-125228572D02*
X167271429Y-124828572D01*
X166671429Y-124828572D02*
X167271429Y-125228572D01*
X167271429Y-124314286D02*
X167271429Y-124600000D01*
X166671429Y-124600000D01*
X167271429Y-123800000D02*
X167271429Y-124142857D01*
X167271429Y-123971429D02*
X166671429Y-123971429D01*
X166757143Y-124028572D01*
X166814286Y-124085714D01*
X166842857Y-124142857D01*
M02*
